<svg width="14" height="14" viewBox="0 0 14 14" fill="none" xmlns="http://www.w3.org/2000/svg">
<g clip-path="url(#clip0_51_312)">
<path d="M0.841477 9.31633C0.898762 9.32562 0.956735 9.32991 1.01474 9.32916L10.8915 9.32916L10.6761 9.42933C10.4656 9.52897 10.2741 9.66457 10.1101 9.83001L7.34046 12.5997C6.97569 12.9479 6.91439 13.5081 7.19521 13.9269C7.52205 14.3733 8.14882 14.4702 8.5952 14.1434C8.63126 14.1169 8.66554 14.0881 8.69775 14.0571L13.7062 9.04869C14.0976 8.65771 14.098 8.02348 13.707 7.63207C13.7067 7.63182 13.7065 7.63154 13.7062 7.63129L8.69775 2.62283C8.30603 2.2322 7.6718 2.23308 7.28114 2.6248C7.2504 2.65563 7.2217 2.68844 7.19521 2.723C6.91439 3.14186 6.97569 3.70203 7.34046 4.05024L10.1051 6.82493C10.2521 6.97205 10.4211 7.09542 10.606 7.19055L10.9065 7.32577L1.06986 7.32577C0.558155 7.30677 0.109209 7.66422 0.0130777 8.1672C-0.0754786 8.71327 0.295399 9.22774 0.841477 9.31633Z" fill="#DC7000"/>
</g>
<defs>
<clipPath id="clip0_51_312">
<rect width="14" height="14" fill="white" transform="matrix(-1 0 0 -1 14 14)"/>
</clipPath>
</defs>
</svg>
