<svg width="29" height="29" viewBox="0 0 29 29" fill="none" xmlns="http://www.w3.org/2000/svg">
<path d="M14.253 0.89209C9.04215 0.89209 4.80273 5.13151 4.80273 10.3423C4.80273 16.8918 14.2623 28.0796 14.2623 28.0796C14.2623 28.0796 23.7032 16.5697 23.7032 10.3423C23.7032 5.13151 19.464 0.89209 14.253 0.89209ZM17.1043 13.1094C16.3181 13.8954 15.2856 14.2885 14.253 14.2885C13.2205 14.2885 12.1877 13.8954 11.4018 13.1094C9.82953 11.5373 9.82953 8.97914 11.4018 7.40687C12.1631 6.64521 13.1759 6.22571 14.253 6.22571C15.3301 6.22571 16.3427 6.64537 17.1043 7.40687C18.6766 8.97914 18.6766 11.5373 17.1043 13.1094Z" fill="black"/>
</svg>
