<svg width="66" height="65" viewBox="0 0 66 65" fill="none" xmlns="http://www.w3.org/2000/svg">
<circle cx="33" cy="32.5" r="32.5" fill="#DC7000" fill-opacity="0.09"/>
<path d="M32.5827 27.25H38.6243M32.5827 23.625H42.2493M28.9577 31.4792V36.9167C28.9577 38.0561 28.9577 38.6253 28.6036 38.9793C28.2496 39.3333 27.6805 39.3333 26.541 39.3333H25.3327C24.1932 39.3333 23.6241 39.3333 23.2701 38.9793C22.916 38.6253 22.916 38.0561 22.916 36.9167V33.8958C22.916 32.7564 22.916 32.1873 23.2701 31.8332C23.6241 31.4792 24.1932 31.4792 25.3327 31.4792H28.9577ZM28.9577 31.4792H34.9993M39.3373 41.4358C38.5772 41.9458 36.5859 42.9849 37.7991 44.2851C38.3911 44.9207 39.0521 45.375 39.881 45.375H44.6177C45.4466 45.375 46.1076 44.9207 46.6996 44.2851C47.9128 42.9849 45.9215 41.9457 45.1614 41.437C44.3023 40.8537 43.2878 40.5418 42.2493 40.5418C41.2109 40.5418 40.1964 40.8525 39.3373 41.4358ZM44.666 35.1042C44.666 35.7451 44.4114 36.3598 43.9582 36.813C43.505 37.2662 42.8903 37.5208 42.2493 37.5208C41.6084 37.5208 40.9937 37.2662 40.5405 36.813C40.0873 36.3598 39.8327 35.7451 39.8327 35.1042C39.8327 34.4632 40.0873 33.8485 40.5405 33.3953C40.9937 32.9421 41.6084 32.6875 42.2493 32.6875C42.8903 32.6875 43.505 32.9421 43.9582 33.3953C44.4114 33.8485 44.666 34.4632 44.666 35.1042ZM28.3535 26.0417C28.3535 26.6826 28.0989 27.2973 27.6457 27.7505C27.1925 28.2037 26.5778 28.4583 25.9368 28.4583C25.2959 28.4583 24.6812 28.2037 24.228 27.7505C23.7748 27.2973 23.5202 26.6826 23.5202 26.0417C23.5202 25.4007 23.7748 24.786 24.228 24.3328C24.6812 23.8796 25.2959 23.625 25.9368 23.625C26.5778 23.625 27.1925 23.8796 27.6457 24.3328C28.0989 24.786 28.3535 25.4007 28.3535 26.0417Z" stroke="#FF9A62" stroke-width="1.5" stroke-linecap="round" stroke-linejoin="round"/>
</svg>
