<svg width="65" height="65" viewBox="0 0 65 65" fill="none" xmlns="http://www.w3.org/2000/svg">
<circle cx="32.5" cy="32.5" r="32.5" fill="#DC7000" fill-opacity="0.09"/>
<path d="M46.25 23.75H23.75C23.087 23.75 22.4511 24.0134 21.9822 24.4822C21.5134 24.9511 21.25 25.587 21.25 26.25V30H23.75V26.25H46.25V43.75H37.5V46.25H46.25C46.913 46.25 47.5489 45.9866 48.0178 45.5178C48.4866 45.0489 48.75 44.413 48.75 43.75V26.25C48.75 25.587 48.4866 24.9511 48.0178 24.4822C47.5489 24.0134 46.913 23.75 46.25 23.75ZM21.25 42.5V46.25H25C25 45.2554 24.6049 44.3016 23.9017 43.5983C23.1984 42.8951 22.2446 42.5 21.25 42.5ZM21.25 37.5V40C22.0708 40 22.8835 40.1617 23.6418 40.4758C24.4001 40.7898 25.0891 41.2502 25.6694 41.8306C26.2498 42.4109 26.7102 43.0999 27.0242 43.8582C27.3383 44.6165 27.5 45.4292 27.5 46.25H30C30 43.9294 29.0781 41.7038 27.4372 40.0628C25.7962 38.4219 23.5706 37.5 21.25 37.5ZM21.25 32.5V35C22.7274 35 24.1903 35.291 25.5552 35.8564C26.9201 36.4217 28.1603 37.2504 29.205 38.295C30.2496 39.3397 31.0783 40.5799 31.6436 41.9448C32.209 43.3097 32.5 44.7726 32.5 46.25H35C35 38.65 28.8375 32.5 21.25 32.5ZM33.75 33.8625V36.3625L38.125 38.75L42.5 36.3625V33.8625L38.125 36.25L33.75 33.8625ZM38.125 27.5L31.25 31.25L38.125 35L45 31.25L38.125 27.5Z" fill="#FF9A62"/>
</svg>
