<svg width="66" height="65" viewBox="0 0 66 65" fill="none" xmlns="http://www.w3.org/2000/svg">
<circle cx="33" cy="32.5" r="32.5" fill="#DC7000" fill-opacity="0.09"/>
<path d="M35.5 46.25C35.2896 46.2504 35.0795 46.2366 34.8709 46.2088C32.9449 43.1212 31.8781 39.5753 31.7809 35.9375H48.5781C48.6006 35.6272 48.625 35.3159 48.625 35C48.625 32.4041 47.8552 29.8665 46.413 27.7081C44.9708 25.5498 42.921 23.8675 40.5227 22.8741C38.1244 21.8807 35.4854 21.6208 32.9394 22.1272C30.3934 22.6336 28.0548 23.8837 26.2192 25.7192C24.3837 27.5548 23.1336 29.8934 22.6272 32.4394C22.1208 34.9854 22.3807 37.6244 23.3741 40.0227C24.3675 42.421 26.0498 44.4708 28.2081 45.913C30.3665 47.3552 32.9041 48.125 35.5 48.125V46.25ZM46.7031 34.0625H41.0903C40.9903 30.6127 40.1078 27.2307 38.5094 24.1719C40.7205 24.7886 42.6904 26.0665 44.1548 27.8343C45.6193 29.602 46.5085 31.7752 46.7031 34.0625ZM36.1281 23.7913C38.0545 26.8788 39.1216 30.4246 39.2191 34.0625H31.7809C31.8784 30.4246 32.9455 26.8788 34.8719 23.7913C35.2895 23.7369 35.7124 23.7369 36.13 23.7913M32.4916 24.1709C30.8927 27.23 30.0099 30.6123 29.9097 34.0625H24.2969C24.4915 31.7752 25.3807 29.602 26.8452 27.8343C28.3096 26.0665 30.2795 24.7886 32.4906 24.1719M24.2969 35.9375H29.9097C30.0097 39.3873 30.8922 42.7693 32.4906 45.8281C30.2795 45.2114 28.3096 43.9335 26.8452 42.1657C25.3807 40.398 24.4915 38.2248 24.2969 35.9375Z" fill="#FF9A62"/>
<path fill-rule="evenodd" clip-rule="evenodd" d="M43.9375 43.4375L48.625 45.3125V43.4375L43.9375 41.0938V38.75C43.9375 38.5014 43.8387 38.2629 43.6629 38.0871C43.4871 37.9113 43.2486 37.8125 43 37.8125C42.7514 37.8125 42.5129 37.9113 42.3371 38.0871C42.1613 38.2629 42.0625 38.5014 42.0625 38.75V41.0938L37.375 43.4375V45.3125L42.0625 43.4375V46.7188L40.1875 48.125V49.0625L43 48.125L45.8125 49.0625V48.125L43.9375 46.7188V43.4375Z" fill="#FF9A62"/>
</svg>
