<svg width="65" height="65" viewBox="0 0 65 65" fill="none" xmlns="http://www.w3.org/2000/svg">
<circle cx="32.5" cy="32.5" r="32.5" fill="#DC7000" fill-opacity="0.09"/>
<path d="M44.2812 43.375H20.7188C19.2144 43.375 18 42.1606 18 40.6562V24.3438C18 22.8394 19.2144 21.625 20.7188 21.625H44.2812C45.7856 21.625 47 22.8394 47 24.3438V40.6562C47 42.1606 45.7856 43.375 44.2812 43.375ZM20.7188 23.4375C20.2113 23.4375 19.8125 23.8363 19.8125 24.3438V40.6562C19.8125 41.1637 20.2113 41.5625 20.7188 41.5625H44.2812C44.7887 41.5625 45.1875 41.1637 45.1875 40.6562V24.3438C45.1875 23.8363 44.7887 23.4375 44.2812 23.4375H20.7188Z" fill="#FF9A62"/>
<path d="M41.9069 29.6546H40.5475C40.1306 29.6546 39.8225 29.7815 39.6231 30.1984L37.0131 36.1434H38.8619C38.8619 36.1434 39.1881 35.3459 39.2425 35.1646H41.5081C41.5806 35.3821 41.7256 36.1253 41.7256 36.1253H43.375L41.9069 29.6728V29.6546ZM39.75 33.8234C39.9131 33.4428 40.4569 32.0109 40.4569 32.0109C40.4569 32.0471 40.62 31.6303 40.6744 31.4128L40.8013 31.9928L41.2181 33.8778H39.75V33.8415V33.8234ZM37.14 34.0046C37.14 35.3459 35.9256 36.234 34.0587 36.234C33.2612 36.234 32.5 36.0709 32.0831 35.8896L32.3369 34.4215L32.5544 34.5121C33.1344 34.7659 33.515 34.8565 34.2037 34.8565C34.7112 34.8565 35.255 34.6571 35.255 34.2221C35.255 33.9321 35.0375 33.7509 34.3306 33.4246C33.66 33.0984 32.7719 32.5909 32.7719 31.6846C32.7719 30.4159 34.0044 29.5459 35.7625 29.5459C36.4331 29.5459 36.995 29.6728 37.3575 29.8359L37.1038 31.2315L36.9769 31.1046C36.6506 30.9778 36.2519 30.8509 35.6356 30.8509C34.965 30.8871 34.6569 31.1771 34.6569 31.4309C34.6569 31.7209 35.0375 31.9384 35.6356 32.2284C36.6506 32.6996 37.1219 33.2434 37.1219 34.0046H37.14ZM21.625 29.709L21.6612 29.5821H24.3981C24.7787 29.5821 25.0688 29.709 25.1594 30.1259L25.7575 32.9896C25.1594 31.4671 23.7456 30.2165 21.625 29.709Z" fill="#FF9A62"/>
<path d="M29.6008 29.6544L26.8277 36.1069H24.9427L23.3477 30.7057C24.4895 31.4307 25.4502 32.5907 25.7945 33.37L25.9939 34.0407L27.7158 29.6182H29.6008V29.6544ZM30.3439 29.6182H32.0839L30.9783 36.1069H29.2383L30.3439 29.6182Z" fill="#FF9A62"/>
</svg>
