<svg width="65" height="65" viewBox="0 0 65 65" fill="none" xmlns="http://www.w3.org/2000/svg">
<circle cx="32.5" cy="32.5" r="32.5" fill="#DC7000" fill-opacity="0.09"/>
<path d="M33.25 36.75C30.385 44.25 22.365 36.75 19.5 44.25M36.375 36.75H38.2512C41.1975 36.75 42.6712 36.75 43.5862 35.835C44.5012 34.92 44.5012 33.4463 44.5012 30.5V28C44.5012 25.0537 44.5012 23.58 43.5862 22.665C42.6712 21.75 41.2 21.75 38.2512 21.75H33.2513C30.305 21.75 28.8325 21.75 27.9175 22.665C27.1425 23.44 27.0225 24.6162 27.005 26.75" stroke="#FF9A62" stroke-width="1.5" stroke-linecap="round" stroke-linejoin="round"/>
<path d="M26.375 36.75C28.1009 36.75 29.5 35.3509 29.5 33.625C29.5 31.8991 28.1009 30.5 26.375 30.5C24.6491 30.5 23.25 31.8991 23.25 33.625C23.25 35.3509 24.6491 36.75 26.375 36.75Z" stroke="#FF9A62" stroke-width="1.5" stroke-linecap="round" stroke-linejoin="round"/>
<path d="M32 26.75H39.5M39.5 31.75H35.75" stroke="#FF9A62" stroke-width="1.5" stroke-linecap="round" stroke-linejoin="round"/>
</svg>
