<svg width="66" height="65" viewBox="0 0 66 65" fill="none" xmlns="http://www.w3.org/2000/svg">
<circle cx="33" cy="32.5" r="32.5" fill="#DC7000" fill-opacity="0.09"/>
<g clip-path="url(#clip0_51_284)">
<path d="M47.8522 42.4493L47.1906 39.9802C47.1045 39.6588 46.774 39.4678 46.4527 39.5542C46.1312 39.6403 45.9405 39.9707 46.0266 40.2921L46.3163 41.373L42.0885 38.9614V28.9382C42.0885 28.7225 41.9732 28.5233 41.7863 28.4158L33.0507 23.3935V18.6208L33.8297 19.3998C34.065 19.635 34.4465 19.635 34.6818 19.3998C34.9171 19.1645 34.9171 18.783 34.6818 18.5476L32.8742 16.74C32.6387 16.5036 32.253 16.5083 32.0221 16.74L30.2145 18.5476C29.9792 18.7829 29.9792 19.1644 30.2145 19.3998C30.4498 19.635 30.8313 19.635 31.0667 19.3998L31.8457 18.6208V23.3945L23.1687 28.4167C22.9826 28.5244 22.868 28.7232 22.868 28.9382V38.864L18.5807 41.3002L18.8708 40.2173C18.9569 39.8959 18.7662 39.5655 18.4447 39.4794C18.1232 39.3931 17.7929 39.584 17.7068 39.9055L17.0453 42.3752C16.9615 42.6879 17.1488 43.0359 17.4894 43.1179L19.9405 43.7747C20.2645 43.8615 20.593 43.6674 20.6785 43.3486C20.7646 43.0272 20.5739 42.6969 20.2524 42.6107L19.2069 42.3306L23.4619 39.9126L32.1804 45.0465C32.367 45.1564 32.5988 45.1579 32.7871 45.0493L34.9973 43.7752C35.2856 43.609 35.3845 43.2405 35.2184 42.9523C35.0522 42.664 34.6837 42.5651 34.3954 42.7312L32.4894 43.83L24.6706 39.2259L32.4102 34.8278L40.299 39.3279L39.0921 40.0237C38.8038 40.1898 38.7049 40.5583 38.871 40.8465C39.0373 41.1349 39.4058 41.2339 39.694 41.0676L41.5118 40.0196L45.6922 42.4044L44.6452 42.6849C44.3238 42.771 44.133 43.1014 44.2192 43.4228C44.3049 43.7426 44.6342 43.9355 44.9571 43.8488L47.3719 43.2019C47.7167 43.141 47.9447 42.7944 47.8522 42.4493ZM40.8834 38.2739L33.0506 33.8058V24.7835L40.8834 29.2868V38.2739ZM24.073 29.2856L31.8456 24.787V33.7625L24.073 38.1792V29.2856Z" fill="#DC7000"/>
<path d="M37.0264 42.4716C37.3591 42.4716 37.6289 42.2019 37.6289 41.8691C37.6289 41.5364 37.3591 41.2666 37.0264 41.2666C36.6936 41.2666 36.4238 41.5364 36.4238 41.8691C36.4238 42.2019 36.6936 42.4716 37.0264 42.4716Z" fill="#DC7000"/>
</g>
<defs>
<clipPath id="clip0_51_284">
<rect width="30.8475" height="30.8475" fill="white" transform="translate(17.0254 15.4238)"/>
</clipPath>
</defs>
</svg>
